# xmcd
#
# Track frame offsets:
#	150
#	17823
#	29121
#	42219
#	54492
#	70590
#	86013
#	100236
#	116109
#	131832
#	146730
#	163203
#	178251
#	195624
#	209472
#	224295
#	242418
#
# Disc length: 3459 seconds
#
# Revision: 0
# Processed by: cddbd v1.5.2PL0 Copyright (c) Steve Scherf et al.
# Submitted via: audiograbber 1.83.01
#
DISCID=040d8111
DTITLE=Reba McEntire - Reba #1's - Disc 1
DYEAR=2005
DGENRE=Country
TTITLE0=You're Gonna Be
TTITLE1=Can't Even Get the Blues
TTITLE2=You're the First Time I've Thought About Leaving
TTITLE3=How Blue
TTITLE4=Somebody Should Leave
TTITLE5=Whoever's in New England
TTITLE6=Little Rock
TTITLE7=What Am I Gonna Do About You
TTITLE8=One Promise Too Late
TTITLE9=The Last One to Know
TTITLE10=Love Will Find It's Way to You
TTITLE11=I Know How She Feels
TTITLE12=New Fool at an Old Game
TTITLE13=Cathy's Clown
TTITLE14=Walk On
TTITLE15=You Lie
TTITLE16=Rumor Has It
EXTD=
EXTT0=
EXTT1=
EXTT2=
EXTT3=
EXTT4=
EXTT5=
EXTT6=
EXTT7=
EXTT8=
EXTT9=
EXTT10=
EXTT11=
EXTT12=
EXTT13=
EXTT14=
EXTT15=
EXTT16=
PLAYORDER=
